<svg width="16" height="16" viewBox="0 0 16 16" fill="none" xmlns="http://www.w3.org/2000/svg">
<path d="M8 1.441c2.136 0 2.389.009 3.233.047.78.036 1.204.166 1.486.275.374.145.64.318.92.598.28.28.453.546.598.92.109.282.239.706.275 1.486.038.844.047 1.097.047 3.233s-.009 2.389-.047 3.233c-.036.78-.166 1.204-.275 1.486-.145.374-.318.64-.598.92-.28.28-.546.453-.92.598-.282.109-.706.239-1.486.275-.844.038-1.097.047-3.233.047s-2.389-.009-3.233-.047c-.78-.036-1.204-.166-1.486-.275a2.478 2.478 0 0 1-.92-.598 2.478 2.478 0 0 1-.598-.92c-.109-.282-.239-.706-.275-1.486C1.45 10.389 1.441 10.136 1.441 8s.009-2.389.047-3.233c.036-.78.166-1.204.275-1.486.145-.374.318-.64.598-.92.28-.28.546-.453.92-.598.282-.109.706-.239 1.486-.275C5.611 1.45 5.864 1.441 8 1.441zM8 0C5.827 0 5.555.01 4.702.048 3.85.088 3.269.222 2.76.42a3.917 3.917 0 0 0-1.417.923A3.917 3.917 0 0 0 .42 2.76C.222 3.268.087 3.85.048 4.7.01 5.555 0 5.827 0 8s.01 2.445.048 3.298c.04.852.174 1.433.372 1.942.205.526.478.972.923 1.417.444.445.89.718 1.417.923.51.198 1.09.333 1.942.372C5.555 15.99 5.827 16 8 16s2.445-.01 3.298-.048c.852-.04 1.433-.174 1.942-.372a3.916 3.916 0 0 0 1.417-.923c.445-.445.718-.891.923-1.417.198-.51.333-1.09.372-1.942C15.99 10.445 16 10.173 16 8s-.01-2.445-.048-3.298c-.04-.852-.174-1.433-.372-1.942a3.916 3.916 0 0 0-.923-1.417A3.916 3.916 0 0 0 13.24.42c-.51-.198-1.09-.333-1.942-.372C10.445.01 10.173 0 8 0z" fill="currentColor"/>
<path d="M8 3.892a4.108 4.108 0 1 0 0 8.216 4.108 4.108 0 0 0 0-8.216zM8 10.667a2.667 2.667 0 1 1 0-5.334 2.667 2.667 0 0 1 0 5.334zM13.23 3.73a.96.96 0 1 1-1.92 0 .96.96 0 0 1 1.92 0z" fill="currentColor"/>
</svg>
